<?xml version="1.0" encoding="utf-8" ?>
<svg xmlns="http://www.w3.org/2000/svg" xmlns:xlink="http://www.w3.org/1999/xlink" width="1024" height="1024">
	<path transform="scale(2 2)" d="M382.92 70.6172C400.03 70.3187 409.928 90.9739 396.172 102.707C390.012 107.961 384.496 107.055 377.056 106.519C357.564 129.504 338.759 153.193 319.992 176.785C317.823 179.512 315.564 182.208 313.764 185.199C318.912 185.48 324.203 185.211 329.368 185.209L361.243 185.19C374.495 185.177 387.249 184.242 397.472 194.462C409.013 206 407.265 218.425 407.239 233.383C419.123 236.098 428.796 245.413 431.22 257.504C432.954 266.15 432.626 304.944 431.693 315.057C430.679 326.046 413.88 343.395 407.239 353.368L407.379 383.711C407.701 407.242 388.609 416.169 367.772 416.133L350.228 416.128C350.171 426.385 350.551 440.6 336.132 440.692L192.94 440.658C168.979 440.671 160.618 443.257 160.757 416.128C143.902 414.523 129.402 420.822 114.826 406.298C104.514 396.023 104.966 386.689 104.987 373.657L105.003 353.368C100.198 345.046 90.4545 334.589 84.3289 326.368C79.1339 319.474 80.0193 310.542 80.0133 302.425L80.0147 269.046C80.02 251.297 84.8892 237.135 105.003 232.559C104.968 218.366 103.493 205.558 114.331 194.547C125.64 183.057 140.073 185.183 154.782 185.199L198.43 185.199C179.351 159.197 154.891 131.05 133.942 106.519C107.781 112.833 100.955 78.8935 121.525 71.9214C138.432 66.1905 151.123 83.0636 142.578 99.7335C145.447 103.818 148.864 107.605 152.039 111.456L171.633 135.122C184.127 150.507 199.483 171.208 212.753 185.199L250.6 185.199C250.602 180.47 250.002 151.928 251.137 149.677C252.127 147.714 254.176 147.183 256.096 146.529C263.711 149.021 261.56 155.048 261.557 162.15C261.554 169.831 261.421 177.52 261.532 185.199L299.756 185.199C301.083 183.059 302.889 181.094 304.483 179.147L363.973 105.494C365.55 103.573 367.081 101.339 368.986 99.7335C362.418 87.3138 367.366 72.2124 382.92 70.6172ZM377.056 405.462C395.62 403.413 396.868 388.406 396.769 374.209L396.764 225.114C396.761 221.544 396.92 217.899 396.487 214.352C394.484 197.977 380.361 195.738 367.419 195.738L189.26 195.755C171.575 195.754 153.868 195.553 136.186 195.749C117.078 198.373 115.72 211.798 115.726 227.78L115.743 364.497C115.734 378.639 112.406 391.853 125.543 401.347C132.985 406.725 142.17 405.476 150.825 405.471L364.898 405.474C368.881 405.478 373.101 405.781 377.056 405.462ZM385.612 96.6812C388.389 96.1633 390.669 94.1856 391.574 91.5101C392.479 88.8346 391.868 85.879 389.976 83.7819C388.084 81.6849 385.206 80.7737 382.452 81.3995C378.307 82.3414 375.678 86.4274 376.539 90.59C377.4 94.7526 381.434 97.4607 385.612 96.6812ZM129.097 96.6047C132.664 95.9051 135.225 92.7607 135.188 89.1256C135.165 86.9315 134.188 84.8558 132.512 83.44C130.835 82.0243 128.626 81.4087 126.459 81.7539C123.766 82.1829 121.514 84.032 120.569 86.5901C119.625 89.1481 120.134 92.0169 121.902 94.093C123.67 96.1692 126.421 97.1296 129.097 96.6047Z"/>
	<path transform="scale(2 2)" d="M176.94 227.745C180.558 227.449 184.232 227.728 187.858 227.736L315.938 227.743C322.903 227.735 331.453 227.124 338.251 228.143C366.311 232.351 365.034 256.824 365.01 277.614L365.06 331.783C365.072 352.764 359.093 371.291 333.687 372.696L192.645 372.706C186.33 372.711 179.677 373.124 173.416 372.278C160.012 370.465 148.988 358.716 146.821 345.593C145.744 339.073 146.251 332.035 146.252 325.432L146.26 269.354C146.245 246.525 151.849 231.928 176.94 227.745ZM246.188 362.064L324.25 362.072C342.649 362.066 354.366 358.098 354.338 337.326L354.303 265.77C354.301 262.001 354.536 257.909 353.789 254.208C350.996 240.371 338.895 238.593 327.584 238.618L264.173 238.637L188.172 238.629C175.141 238.625 161.249 239.58 157.413 255.526C156.447 259.538 156.744 264.005 156.743 268.105L156.754 333.878C156.819 364.523 174.23 362.075 198.268 362.061L246.188 362.064Z"/>
	<path fill="#A4CFEC" transform="scale(2 2)" d="M264.173 238.637L327.584 238.618C338.895 238.593 350.996 240.371 353.789 254.208C354.536 257.909 354.301 262.001 354.303 265.77L354.338 337.326C354.366 358.098 342.649 362.066 324.25 362.072L246.188 362.064L198.268 362.061C174.23 362.075 156.819 364.523 156.754 333.878L156.743 268.105C156.744 264.005 156.447 259.538 157.413 255.526C161.249 239.58 175.141 238.625 188.172 238.629L264.173 238.637ZM216.368 335.163L295.586 335.163C295.795 329.705 295.572 324.203 295.586 318.739L216.368 318.739C216.3 324.156 216.036 329.762 216.368 335.163ZM313.764 282.25C315.696 281.409 315.421 269.464 314.564 267.911C312.607 264.368 302.858 266.197 299.756 266.738C296.343 268.199 297.916 280.064 298.628 281.724C301.08 282.839 310.665 282.378 313.764 282.25ZM199.425 282.25C203.839 282.272 208.349 282.48 212.753 282.25C215.163 280.407 214.796 269.677 213.888 267.631C211.342 265.979 201.821 266.689 198.43 266.738C196.023 268.615 194.741 279.652 199.425 282.25Z"/>
	<path transform="scale(2 2)" d="M214.248 308.007L291.064 308C310.997 308 306.439 306.973 306.524 327.165C306.567 337.511 310.184 346.088 298.003 345.997L220.18 346.016C213.099 346.026 205.581 348.473 205.284 339.93C205.137 335.686 204.31 311.383 206.448 309.358C208.16 307.736 212.03 308.073 214.248 308.007ZM216.368 335.163L295.586 335.163C295.795 329.705 295.572 324.203 295.586 318.739L216.368 318.739C216.3 324.156 216.036 329.762 216.368 335.163Z"/>
	<path transform="scale(2 2)" d="M305.252 254.986C323.646 254.018 327.486 263.262 326.44 279.841C325.766 290.519 318.105 294.087 308.408 293.298C293.679 294.816 287.104 289.227 287.003 274.477C286.907 260.645 290.948 254.857 305.252 254.986ZM313.764 282.25C315.696 281.409 315.421 269.464 314.564 267.911C312.607 264.368 302.858 266.197 299.756 266.738C296.343 268.199 297.916 280.064 298.628 281.724C301.08 282.839 310.665 282.378 313.764 282.25Z"/>
	<path transform="scale(2 2)" d="M199.425 255.74C209.524 255.296 222.181 254.947 224.976 267.122C227.597 278.536 225.603 290.651 212.753 293.298C202.954 293.344 188.514 294.915 186.285 282.096C184.167 269.916 185.45 257.777 199.425 255.74ZM199.425 282.25C203.839 282.272 208.349 282.48 212.753 282.25C215.163 280.407 214.796 269.677 213.888 267.631C211.342 265.979 201.821 266.689 198.43 266.738C196.023 268.615 194.741 279.652 199.425 282.25Z"/>
	<path fill="#8D8C8C" transform="scale(2 2)" d="M247.757 416.128L339.649 416.128C339.798 431.327 340.737 430.336 325.633 430.342L264.173 430.335L206.176 430.335C202.023 430.336 175.318 431.348 173.169 429.67C170.48 427.57 171.458 419.241 171.489 416.128L247.757 416.128Z"/>
	<path fill="#8D8C8C" transform="scale(2 2)" d="M104.077 244.188L104.703 244.286C105.92 246.182 104.997 270.898 104.997 274.998L105.003 335.163C102.833 332.86 100.927 330.249 98.9644 327.765C95.6673 323.002 91.155 319.66 90.8249 313.517C90.3654 304.967 90.7613 296.186 90.7639 287.615C90.7688 271.801 86.3958 251.414 104.077 244.188Z"/>
	<path fill="#8D8C8C" transform="scale(2 2)" d="M407.239 244.188C424.344 248.922 421.369 269.798 421.364 283.284C421.357 302.08 425.24 312.551 413.448 327.765C411.52 330.397 409.569 332.869 407.239 335.163C407.394 331.903 407.249 328.582 407.248 325.315L407.239 244.188Z"/>
</svg>
